<mxfile host="Electron" agent="Mozilla/5.0 (Windows NT 10.0; Win64; x64) AppleWebKit/537.36 (KHTML, like Gecko) draw.io/27.0.9 Chrome/134.0.6998.205 Electron/35.4.0 Safari/537.36" version="27.0.9">
  <diagram name="Page-1" id="_YAGnDCf7AARwbx5ehwd">
    <mxGraphModel dx="1281" dy="660" grid="1" gridSize="10" guides="1" tooltips="1" connect="1" arrows="1" fold="1" page="1" pageScale="1" pageWidth="850" pageHeight="1100" math="0" shadow="0">
      <root>
        <mxCell id="0" />
        <mxCell id="1" parent="0" />
        <mxCell id="oUe6RoK_sXlFQn9h2GNB-1" value="&lt;b&gt;&lt;font style=&quot;font-size: 24px;&quot;&gt;Data Flow Diagram&lt;/font&gt;&lt;/b&gt;" style="text;html=1;align=center;verticalAlign=middle;whiteSpace=wrap;rounded=0;" parent="1" vertex="1">
          <mxGeometry x="492.5" y="190" width="260" height="50" as="geometry" />
        </mxCell>
        <mxCell id="oUe6RoK_sXlFQn9h2GNB-2" value="" style="rounded=0;whiteSpace=wrap;html=1;fillColor=none;dashed=1;" parent="1" vertex="1">
          <mxGeometry x="440" y="330" width="130" height="320" as="geometry" />
        </mxCell>
        <mxCell id="oUe6RoK_sXlFQn9h2GNB-3" value="Sources" style="rounded=0;whiteSpace=wrap;html=1;fillColor=default;gradientColor=none;strokeColor=none;" parent="1" vertex="1">
          <mxGeometry x="470" y="320" width="65" height="30" as="geometry" />
        </mxCell>
        <mxCell id="oUe6RoK_sXlFQn9h2GNB-4" value="" style="image;aspect=fixed;html=1;points=[];align=center;fontSize=12;image=img/lib/azure2/general/Folder_Blank.svg;" parent="1" vertex="1">
          <mxGeometry x="480.36" y="430" width="49.28" height="40" as="geometry" />
        </mxCell>
        <mxCell id="oUe6RoK_sXlFQn9h2GNB-5" value="" style="image;aspect=fixed;html=1;points=[];align=center;fontSize=12;image=img/lib/azure2/general/Folder_Blank.svg;" parent="1" vertex="1">
          <mxGeometry x="480.36" y="550" width="49.28" height="40" as="geometry" />
        </mxCell>
        <mxCell id="oUe6RoK_sXlFQn9h2GNB-6" value="CRM" style="text;html=1;align=center;verticalAlign=middle;whiteSpace=wrap;rounded=0;fontStyle=1" parent="1" vertex="1">
          <mxGeometry x="475" y="470" width="60" height="30" as="geometry" />
        </mxCell>
        <mxCell id="oUe6RoK_sXlFQn9h2GNB-7" value="&lt;b&gt;ERP&lt;/b&gt;" style="text;html=1;align=center;verticalAlign=middle;whiteSpace=wrap;rounded=0;" parent="1" vertex="1">
          <mxGeometry x="475" y="590" width="60" height="30" as="geometry" />
        </mxCell>
        <mxCell id="oUe6RoK_sXlFQn9h2GNB-9" value="" style="rounded=1;whiteSpace=wrap;html=1;fillColor=none;strokeColor=light-dark(#FBC826,#543300);" parent="1" vertex="1">
          <mxGeometry x="642.5" y="390" width="150" height="260" as="geometry" />
        </mxCell>
        <mxCell id="oUe6RoK_sXlFQn9h2GNB-10" value="&lt;b&gt;Bronze Layer&lt;/b&gt;" style="rounded=1;whiteSpace=wrap;html=1;fillColor=#ffe6cc;strokeColor=#d79b00;" parent="1" vertex="1">
          <mxGeometry x="642.5" y="330" width="150" height="40" as="geometry" />
        </mxCell>
        <mxCell id="oUe6RoK_sXlFQn9h2GNB-43" style="edgeStyle=orthogonalEdgeStyle;rounded=0;orthogonalLoop=1;jettySize=auto;html=1;entryX=0;entryY=0.5;entryDx=0;entryDy=0;" parent="1" source="oUe6RoK_sXlFQn9h2GNB-11" target="oUe6RoK_sXlFQn9h2GNB-37" edge="1">
          <mxGeometry relative="1" as="geometry" />
        </mxCell>
        <mxCell id="oUe6RoK_sXlFQn9h2GNB-11" value="crm_sales_details" style="rounded=1;whiteSpace=wrap;html=1;strokeColor=#d79b00;fillColor=#ffe6cc;" parent="1" vertex="1">
          <mxGeometry x="667.5" y="410" width="100" height="20" as="geometry" />
        </mxCell>
        <mxCell id="oUe6RoK_sXlFQn9h2GNB-44" style="edgeStyle=orthogonalEdgeStyle;rounded=0;orthogonalLoop=1;jettySize=auto;html=1;entryX=0;entryY=0.5;entryDx=0;entryDy=0;" parent="1" source="oUe6RoK_sXlFQn9h2GNB-12" target="oUe6RoK_sXlFQn9h2GNB-38" edge="1">
          <mxGeometry relative="1" as="geometry" />
        </mxCell>
        <mxCell id="oUe6RoK_sXlFQn9h2GNB-12" value="crm_sales_details" style="rounded=1;whiteSpace=wrap;html=1;strokeColor=#d79b00;fillColor=#ffe6cc;" parent="1" vertex="1">
          <mxGeometry x="667.5" y="440" width="100" height="20" as="geometry" />
        </mxCell>
        <mxCell id="oUe6RoK_sXlFQn9h2GNB-45" style="edgeStyle=orthogonalEdgeStyle;rounded=0;orthogonalLoop=1;jettySize=auto;html=1;entryX=0;entryY=0.5;entryDx=0;entryDy=0;" parent="1" source="oUe6RoK_sXlFQn9h2GNB-13" target="oUe6RoK_sXlFQn9h2GNB-39" edge="1">
          <mxGeometry relative="1" as="geometry" />
        </mxCell>
        <mxCell id="oUe6RoK_sXlFQn9h2GNB-13" value="crm_sales_details" style="rounded=1;whiteSpace=wrap;html=1;strokeColor=#d79b00;fillColor=#ffe6cc;" parent="1" vertex="1">
          <mxGeometry x="667.5" y="470" width="100" height="20" as="geometry" />
        </mxCell>
        <mxCell id="oUe6RoK_sXlFQn9h2GNB-49" style="edgeStyle=orthogonalEdgeStyle;rounded=0;orthogonalLoop=1;jettySize=auto;html=1;entryX=0;entryY=0.5;entryDx=0;entryDy=0;" parent="1" source="oUe6RoK_sXlFQn9h2GNB-14" target="oUe6RoK_sXlFQn9h2GNB-40" edge="1">
          <mxGeometry relative="1" as="geometry" />
        </mxCell>
        <mxCell id="oUe6RoK_sXlFQn9h2GNB-14" value="crm_sales_details" style="rounded=1;whiteSpace=wrap;html=1;strokeColor=#d79b00;fillColor=#ffe6cc;" parent="1" vertex="1">
          <mxGeometry x="667.5" y="530" width="100" height="20" as="geometry" />
        </mxCell>
        <mxCell id="oUe6RoK_sXlFQn9h2GNB-47" style="edgeStyle=orthogonalEdgeStyle;rounded=0;orthogonalLoop=1;jettySize=auto;html=1;entryX=0;entryY=0.5;entryDx=0;entryDy=0;" parent="1" source="oUe6RoK_sXlFQn9h2GNB-15" target="oUe6RoK_sXlFQn9h2GNB-41" edge="1">
          <mxGeometry relative="1" as="geometry" />
        </mxCell>
        <mxCell id="oUe6RoK_sXlFQn9h2GNB-15" value="crm_sales_details" style="rounded=1;whiteSpace=wrap;html=1;strokeColor=#d79b00;fillColor=#ffe6cc;" parent="1" vertex="1">
          <mxGeometry x="667.5" y="560" width="100" height="20" as="geometry" />
        </mxCell>
        <mxCell id="oUe6RoK_sXlFQn9h2GNB-48" style="edgeStyle=orthogonalEdgeStyle;rounded=0;orthogonalLoop=1;jettySize=auto;html=1;entryX=0;entryY=0.5;entryDx=0;entryDy=0;" parent="1" source="oUe6RoK_sXlFQn9h2GNB-16" target="oUe6RoK_sXlFQn9h2GNB-42" edge="1">
          <mxGeometry relative="1" as="geometry" />
        </mxCell>
        <mxCell id="oUe6RoK_sXlFQn9h2GNB-16" value="crm_sales_details" style="rounded=1;whiteSpace=wrap;html=1;strokeColor=#d79b00;fillColor=#ffe6cc;" parent="1" vertex="1">
          <mxGeometry x="667.5" y="590" width="100" height="20" as="geometry" />
        </mxCell>
        <mxCell id="oUe6RoK_sXlFQn9h2GNB-17" value="" style="endArrow=classic;html=1;rounded=0;exitX=1.028;exitY=0.343;exitDx=0;exitDy=0;exitPerimeter=0;entryX=0;entryY=0.5;entryDx=0;entryDy=0;" parent="1" target="oUe6RoK_sXlFQn9h2GNB-12" edge="1">
          <mxGeometry width="50" height="50" relative="1" as="geometry">
            <mxPoint x="529.64" y="449.5" as="sourcePoint" />
            <mxPoint x="618.5" y="449.74" as="targetPoint" />
            <Array as="points">
              <mxPoint x="602.5" y="450" />
            </Array>
          </mxGeometry>
        </mxCell>
        <mxCell id="oUe6RoK_sXlFQn9h2GNB-22" value="" style="endArrow=none;html=1;rounded=0;" parent="1" edge="1">
          <mxGeometry width="50" height="50" relative="1" as="geometry">
            <mxPoint x="602.5" y="480" as="sourcePoint" />
            <mxPoint x="602.5" y="420" as="targetPoint" />
          </mxGeometry>
        </mxCell>
        <mxCell id="oUe6RoK_sXlFQn9h2GNB-25" value="" style="endArrow=classic;html=1;rounded=0;entryX=0;entryY=0.5;entryDx=0;entryDy=0;" parent="1" target="oUe6RoK_sXlFQn9h2GNB-11" edge="1">
          <mxGeometry width="50" height="50" relative="1" as="geometry">
            <mxPoint x="602.5" y="420" as="sourcePoint" />
            <mxPoint x="662.5" y="420" as="targetPoint" />
          </mxGeometry>
        </mxCell>
        <mxCell id="oUe6RoK_sXlFQn9h2GNB-26" value="" style="endArrow=classic;html=1;rounded=0;entryX=0;entryY=0.5;entryDx=0;entryDy=0;" parent="1" target="oUe6RoK_sXlFQn9h2GNB-13" edge="1">
          <mxGeometry width="50" height="50" relative="1" as="geometry">
            <mxPoint x="602.5" y="479.85" as="sourcePoint" />
            <mxPoint x="662.9776046525187" y="479.85" as="targetPoint" />
          </mxGeometry>
        </mxCell>
        <mxCell id="oUe6RoK_sXlFQn9h2GNB-31" value="" style="endArrow=classic;html=1;rounded=0;exitX=1.028;exitY=0.343;exitDx=0;exitDy=0;exitPerimeter=0;entryX=0;entryY=0.5;entryDx=0;entryDy=0;" parent="1" edge="1">
          <mxGeometry width="50" height="50" relative="1" as="geometry">
            <mxPoint x="529.64" y="569.19" as="sourcePoint" />
            <mxPoint x="667.5" y="569.69" as="targetPoint" />
            <Array as="points">
              <mxPoint x="602.5" y="569.69" />
            </Array>
          </mxGeometry>
        </mxCell>
        <mxCell id="oUe6RoK_sXlFQn9h2GNB-32" value="" style="endArrow=none;html=1;rounded=0;" parent="1" edge="1">
          <mxGeometry width="50" height="50" relative="1" as="geometry">
            <mxPoint x="602.5" y="599.69" as="sourcePoint" />
            <mxPoint x="602.5" y="539.69" as="targetPoint" />
          </mxGeometry>
        </mxCell>
        <mxCell id="oUe6RoK_sXlFQn9h2GNB-33" value="" style="endArrow=classic;html=1;rounded=0;entryX=0;entryY=0.5;entryDx=0;entryDy=0;" parent="1" edge="1">
          <mxGeometry width="50" height="50" relative="1" as="geometry">
            <mxPoint x="602.5" y="539.69" as="sourcePoint" />
            <mxPoint x="667.5" y="539.69" as="targetPoint" />
          </mxGeometry>
        </mxCell>
        <mxCell id="oUe6RoK_sXlFQn9h2GNB-34" value="" style="endArrow=classic;html=1;rounded=0;entryX=0;entryY=0.5;entryDx=0;entryDy=0;" parent="1" edge="1">
          <mxGeometry width="50" height="50" relative="1" as="geometry">
            <mxPoint x="602.5" y="599.54" as="sourcePoint" />
            <mxPoint x="667.5" y="599.69" as="targetPoint" />
          </mxGeometry>
        </mxCell>
        <mxCell id="oUe6RoK_sXlFQn9h2GNB-35" value="" style="rounded=1;whiteSpace=wrap;html=1;fillColor=none;strokeColor=light-dark(#999999,#543300);" parent="1" vertex="1">
          <mxGeometry x="872.5" y="390" width="150" height="260" as="geometry" />
        </mxCell>
        <mxCell id="oUe6RoK_sXlFQn9h2GNB-36" value="&lt;b&gt;Silver Layer&lt;/b&gt;" style="rounded=1;whiteSpace=wrap;html=1;fillColor=#D0D0D0;strokeColor=#A4A4A4;" parent="1" vertex="1">
          <mxGeometry x="872.5" y="330" width="150" height="40" as="geometry" />
        </mxCell>
        <mxCell id="oUe6RoK_sXlFQn9h2GNB-37" value="crm_sales_details" style="rounded=1;whiteSpace=wrap;html=1;strokeColor=#A4A4A4;fillColor=#D0D0D0;" parent="1" vertex="1">
          <mxGeometry x="897.5" y="410" width="100" height="20" as="geometry" />
        </mxCell>
        <mxCell id="oUe6RoK_sXlFQn9h2GNB-38" value="crm_cust_info" style="rounded=1;whiteSpace=wrap;html=1;strokeColor=#A4A4A4;fillColor=#D0D0D0;" parent="1" vertex="1">
          <mxGeometry x="897.5" y="440" width="100" height="20" as="geometry" />
        </mxCell>
        <mxCell id="oUe6RoK_sXlFQn9h2GNB-39" value="crm_prd_info" style="rounded=1;whiteSpace=wrap;html=1;strokeColor=#A4A4A4;fillColor=#D0D0D0;" parent="1" vertex="1">
          <mxGeometry x="897.5" y="470" width="100" height="20" as="geometry" />
        </mxCell>
        <mxCell id="oUe6RoK_sXlFQn9h2GNB-40" value="erp_cust_az12" style="rounded=1;whiteSpace=wrap;html=1;strokeColor=#A4A4A4;fillColor=#D0D0D0;" parent="1" vertex="1">
          <mxGeometry x="897.5" y="530" width="100" height="20" as="geometry" />
        </mxCell>
        <mxCell id="oUe6RoK_sXlFQn9h2GNB-41" value="erp_loc_a101" style="rounded=1;whiteSpace=wrap;html=1;strokeColor=#A4A4A4;fillColor=#D0D0D0;" parent="1" vertex="1">
          <mxGeometry x="897.5" y="560" width="100" height="20" as="geometry" />
        </mxCell>
        <mxCell id="oUe6RoK_sXlFQn9h2GNB-42" value="erp_px_cat_g1v2" style="rounded=1;whiteSpace=wrap;html=1;strokeColor=#A4A4A4;fillColor=#D0D0D0;" parent="1" vertex="1">
          <mxGeometry x="897.5" y="590" width="100" height="20" as="geometry" />
        </mxCell>
        <mxCell id="kLymaYgRJWaHOezhJ3QQ-1" value="" style="rounded=1;whiteSpace=wrap;html=1;fillColor=none;strokeColor=#d6b656;" vertex="1" parent="1">
          <mxGeometry x="1102.5" y="390" width="150" height="260" as="geometry" />
        </mxCell>
        <mxCell id="kLymaYgRJWaHOezhJ3QQ-2" value="&lt;b&gt;Gold Layer&lt;/b&gt;" style="rounded=1;whiteSpace=wrap;html=1;fillColor=#fff2cc;strokeColor=#d6b656;" vertex="1" parent="1">
          <mxGeometry x="1102.5" y="330" width="150" height="40" as="geometry" />
        </mxCell>
        <mxCell id="kLymaYgRJWaHOezhJ3QQ-3" value="fact_sales" style="rounded=1;whiteSpace=wrap;html=1;strokeColor=#d6b656;fillColor=#fff2cc;" vertex="1" parent="1">
          <mxGeometry x="1127.5" y="410" width="100" height="20" as="geometry" />
        </mxCell>
        <mxCell id="kLymaYgRJWaHOezhJ3QQ-6" value="dim_customers" style="rounded=1;whiteSpace=wrap;html=1;strokeColor=#d6b656;fillColor=#fff2cc;" vertex="1" parent="1">
          <mxGeometry x="1127.5" y="510" width="100" height="20" as="geometry" />
        </mxCell>
        <mxCell id="kLymaYgRJWaHOezhJ3QQ-8" value="dim_products" style="rounded=1;whiteSpace=wrap;html=1;strokeColor=#d6b656;fillColor=#fff2cc;" vertex="1" parent="1">
          <mxGeometry x="1127.5" y="570" width="100" height="20" as="geometry" />
        </mxCell>
        <mxCell id="kLymaYgRJWaHOezhJ3QQ-9" value="" style="endArrow=classic;html=1;rounded=0;exitX=1;exitY=0.5;exitDx=0;exitDy=0;entryX=0;entryY=0.5;entryDx=0;entryDy=0;" edge="1" parent="1" source="oUe6RoK_sXlFQn9h2GNB-37" target="kLymaYgRJWaHOezhJ3QQ-3">
          <mxGeometry width="50" height="50" relative="1" as="geometry">
            <mxPoint x="1042.5" y="510" as="sourcePoint" />
            <mxPoint x="1072.5" y="430" as="targetPoint" />
          </mxGeometry>
        </mxCell>
        <mxCell id="kLymaYgRJWaHOezhJ3QQ-10" value="" style="endArrow=classic;html=1;rounded=0;exitX=1;exitY=0.5;exitDx=0;exitDy=0;entryX=0;entryY=0.25;entryDx=0;entryDy=0;" edge="1" parent="1" source="oUe6RoK_sXlFQn9h2GNB-38" target="kLymaYgRJWaHOezhJ3QQ-6">
          <mxGeometry width="50" height="50" relative="1" as="geometry">
            <mxPoint x="1042.5" y="510" as="sourcePoint" />
            <mxPoint x="1092.5" y="460" as="targetPoint" />
          </mxGeometry>
        </mxCell>
        <mxCell id="kLymaYgRJWaHOezhJ3QQ-11" value="" style="endArrow=classic;html=1;rounded=0;exitX=1;exitY=0.5;exitDx=0;exitDy=0;entryX=0;entryY=0.5;entryDx=0;entryDy=0;" edge="1" parent="1" source="oUe6RoK_sXlFQn9h2GNB-39" target="kLymaYgRJWaHOezhJ3QQ-8">
          <mxGeometry width="50" height="50" relative="1" as="geometry">
            <mxPoint x="952.5" y="500" as="sourcePoint" />
            <mxPoint x="1042.5" y="530" as="targetPoint" />
          </mxGeometry>
        </mxCell>
        <mxCell id="kLymaYgRJWaHOezhJ3QQ-12" value="" style="endArrow=classic;html=1;rounded=0;exitX=1;exitY=0.5;exitDx=0;exitDy=0;entryX=0;entryY=0.5;entryDx=0;entryDy=0;" edge="1" parent="1" source="oUe6RoK_sXlFQn9h2GNB-40" target="kLymaYgRJWaHOezhJ3QQ-6">
          <mxGeometry width="50" height="50" relative="1" as="geometry">
            <mxPoint x="1072.5" y="750" as="sourcePoint" />
            <mxPoint x="1122.5" y="700" as="targetPoint" />
          </mxGeometry>
        </mxCell>
        <mxCell id="kLymaYgRJWaHOezhJ3QQ-13" value="" style="endArrow=classic;html=1;rounded=0;exitX=1;exitY=0.5;exitDx=0;exitDy=0;entryX=0;entryY=0.75;entryDx=0;entryDy=0;" edge="1" parent="1" target="kLymaYgRJWaHOezhJ3QQ-6">
          <mxGeometry width="50" height="50" relative="1" as="geometry">
            <mxPoint x="997.5" y="570" as="sourcePoint" />
            <mxPoint x="1127.5" y="550" as="targetPoint" />
          </mxGeometry>
        </mxCell>
        <mxCell id="kLymaYgRJWaHOezhJ3QQ-14" value="" style="endArrow=classic;html=1;rounded=0;entryX=0;entryY=0.75;entryDx=0;entryDy=0;" edge="1" parent="1" target="kLymaYgRJWaHOezhJ3QQ-8">
          <mxGeometry width="50" height="50" relative="1" as="geometry">
            <mxPoint x="997.5" y="600" as="sourcePoint" />
            <mxPoint x="1067.5" y="570" as="targetPoint" />
          </mxGeometry>
        </mxCell>
      </root>
    </mxGraphModel>
  </diagram>
</mxfile>
